<?xml version="1.0" encoding="UTF-8"?>
<svg version="1.1" xmlns="http://www.w3.org/2000/svg" width="540" height="360">
<path d="M0 0 C4.78953906 0.8084042 8.33547262 2.7409789 12.4375 5.25 C13.96604885 6.16682838 15.4946997 7.08348672 17.0234375 8 C18.23725098 8.73283203 18.23725098 8.73283203 19.47558594 9.48046875 C23.82218205 12.09683376 28.19350797 14.67127102 32.5625 17.25 C33.48788574 17.79720703 34.41327148 18.34441406 35.36669922 18.90820312 C43.07935674 23.46634279 50.81497216 27.98441597 58.55615234 32.49389648 C66.44061135 37.08760944 74.31610559 41.69645395 82.1875 46.3125 C82.78654144 46.66375946 83.38558289 47.01501892 84.0027771 47.37692261 C89.66945355 50.69973819 95.33560153 54.02345436 101.00146484 57.34765625 C104.3223869 59.29606248 107.6435149 61.24411727 110.9647522 63.19198608 C112.82588422 64.28368965 114.68675086 65.37584456 116.54760742 66.46801758 C118.75831589 67.7646093 120.97111298 69.05765017 123.18652344 70.34619141 C124.88019182 71.34175801 126.56414508 72.35453835 128.22753906 73.39990234 C131.3003561 75.44910703 131.3003561 75.44910703 134.84057617 75.78027344 C137.58703074 74.78788578 139.9564142 73.44362703 142.48046875 71.97265625 C143.55474121 71.34939453 144.62901367 70.72613281 145.73583984 70.08398438 C146.29986511 69.75358154 146.86389038 69.42317871 147.44500732 69.08276367 C149.19680925 68.05704925 150.95261873 67.03851764 152.70947266 66.02148438 C157.95515869 62.97917133 163.18042823 59.90767806 168.35546875 56.74609375 C169.13059814 56.2761499 169.90572754 55.80620605 170.7043457 55.32202148 C172.1172357 54.46151093 173.52375341 53.59041978 174.92260742 52.70727539 C179.5183653 49.91190522 179.5183653 49.91190522 182.19970703 50.40234375 C182.79380371 50.59957031 183.38790039 50.79679687 184 51 C184.02335028 65.16001895 184.0409232 79.32003492 184.05181217 93.48006916 C184.05703752 100.05467203 184.06412889 106.62926199 184.07543945 113.20385742 C184.08628064 119.54508275 184.09227947 125.88629565 184.09487724 132.22752953 C184.09672926 134.65050642 184.10034562 137.07348262 184.10573006 139.49645424 C184.11295678 142.88217278 184.11399024 146.26783948 184.11352539 149.65356445 C184.11712067 150.66200912 184.12071594 151.6704538 184.12442017 152.7094574 C184.1230455 153.63072418 184.12167084 154.55199097 184.12025452 155.50117493 C184.12163721 156.70273208 184.12163721 156.70273208 184.12304783 157.92856312 C184 160 184 160 183 163 C177.52256666 162.48729173 173.71310541 160.46908623 169.0625 157.75 C168.38509766 157.36714844 167.70769531 156.98429688 167.00976562 156.58984375 C154.79258548 149.58517095 154.79258548 149.58517095 153 146 C152.91050583 144.54962893 152.8824156 143.09521371 152.88647461 141.64208984 C152.88655014 140.74130707 152.88662567 139.84052429 152.88670349 138.91244507 C152.89186478 137.93844757 152.89702606 136.96445007 152.90234375 135.9609375 C152.90446617 134.46694931 152.90446617 134.46694931 152.90663147 132.94277954 C152.91224064 129.75348947 152.9247947 126.56426894 152.9375 123.375 C152.94251382 121.21614685 152.94707693 119.05729259 152.95117188 116.8984375 C152.96221305 111.5989345 152.97896012 106.29947222 153 101 C152.48614746 101.31340332 151.97229492 101.62680664 151.44287109 101.94970703 C149.09910254 103.36293142 146.73784423 104.74392671 144.375 106.125 C143.56675781 106.61871094 142.75851562 107.11242187 141.92578125 107.62109375 C135.84681895 111.13008825 135.84681895 111.13008825 131.76269531 110.50268555 C130.85100586 110.00679932 129.93931641 109.51091309 129 109 C128.0934668 108.51893799 127.18693359 108.03787598 126.25292969 107.54223633 C125.31868164 106.97786865 124.38443359 106.41350098 123.421875 105.83203125 C122.35710937 105.19394531 121.29234375 104.55585938 120.1953125 103.8984375 C119.63489258 103.5590918 119.07447266 103.21974609 118.49707031 102.87011719 C115.47926042 101.0432373 112.44980164 99.23582547 109.421875 97.42578125 C108.80123169 97.05409821 108.18058838 96.68241516 107.5411377 96.29946899 C101.40166208 92.62831358 95.20571561 89.05787388 89 85.5 C80.12428021 80.40311186 71.29609211 75.23308603 62.5 70 C53.49518118 64.64299978 44.45711226 59.34993414 35.375 54.125 C27.98767716 49.87502433 20.60164095 45.62400098 13.25 41.3125 C12.58919434 40.92658691 11.92838867 40.54067383 11.24755859 40.14306641 C9.49010868 39.10929952 7.74464712 38.05523011 6 37 C4.95215332 36.454646 3.90430664 35.90929199 2.82470703 35.34741211 C0 33 0 33 -0.68115234 29.51660156 C-0.68020828 28.1409102 -0.64663512 26.76497699 -0.5859375 25.390625 C-0.57744781 24.66381531 -0.56895813 23.93700562 -0.56021118 23.18817139 C-0.52670601 20.87391879 -0.45144932 18.56319295 -0.375 16.25 C-0.34489589 14.67843587 -0.31752083 13.10681692 -0.29296875 11.53515625 C-0.2269265 7.68875187 -0.12343921 3.84497309 0 0 Z " fill="#EDEDEE" transform="translate(164,98)"/>
<path d="M0 0 C4.30543598 0.8610872 6.29135503 1.52235967 9.89453125 3.66796875 C11.30895508 4.50231445 11.30895508 4.50231445 12.75195312 5.35351562 C13.76193359 5.95873047 14.77191406 6.56394531 15.8125 7.1875 C17.98556541 8.47284507 20.15874566 9.757996 22.33203125 11.04296875 C23.44143066 11.70216309 24.55083008 12.36135742 25.69384766 13.04052734 C30.77973956 16.0548065 35.89019051 19.0265141 41 22 C43.00664038 23.17035011 45.01315051 24.34092357 47.01953125 25.51171875 C50.95393232 27.80683936 54.88885909 30.10105471 58.82421875 32.39453125 C67.37670141 37.37979038 75.9274317 42.36787411 84.46484375 47.37890625 C85.42021278 47.93953514 85.42021278 47.93953514 86.3948822 48.51148987 C89.4900608 50.32792648 92.58472789 52.14522374 95.6784668 53.96411133 C103.75041197 58.70545697 111.86268249 63.3719296 120 68 C120 68.99 120 69.98 120 71 C116.76043419 73.552821 113.19110716 75.58303703 109.6484375 77.68994141 C107.89053509 78.74071402 106.15256303 79.81985321 104.4140625 80.90234375 C103.30546875 81.56878906 102.196875 82.23523438 101.0546875 82.921875 C100.03874512 83.53643555 99.02280273 84.15099609 97.97607422 84.78417969 C94.39955989 86.24529875 92.67856825 86.05780571 89 85 C86.77197266 84.00708008 86.77197266 84.00708008 84.6640625 82.76953125 C83.8592041 82.30329346 83.0543457 81.83705566 82.22509766 81.35668945 C81.36706543 80.84710693 80.5090332 80.33752441 79.625 79.8125 C78.71669434 79.28293701 77.80838867 78.75337402 76.87255859 78.20776367 C74.92447275 77.07080077 72.97874077 75.92979693 71.03515625 74.78515625 C67.96741235 72.98083326 64.89132899 71.19158354 61.8125 69.40625 C50.82092718 63.02691888 39.86989171 56.58464594 29 50 C29.16081055 51.30356445 29.32162109 52.60712891 29.48730469 53.95019531 C29.99935906 58.57720624 30.17666354 63.14454976 30.203125 67.796875 C30.20882507 68.59353577 30.21452515 69.39019653 30.22039795 70.21099854 C30.22976265 71.87811995 30.23634751 73.54525916 30.24023438 75.21240234 C30.25003005 77.75780848 30.28116818 80.30243571 30.3125 82.84765625 C30.31902345 84.47655776 30.3242765 86.10546497 30.328125 87.734375 C30.3404718 88.48966492 30.3528186 89.24495483 30.36553955 90.02313232 C30.34644343 94.5494264 29.88458537 97.46340851 27 101 C24.71923828 102.76098633 24.71923828 102.76098633 22.0703125 104.33203125 C21.10996094 104.90244141 20.14960938 105.47285156 19.16015625 106.06054688 C18.15855469 106.63869141 17.15695313 107.21683594 16.125 107.8125 C15.13113281 108.40998047 14.13726562 109.00746094 13.11328125 109.62304688 C5.63994643 114 5.63994643 114 0 114 C0 76.38 0 38.76 0 0 Z " fill="#EEEEEE" transform="translate(164,147)"/>
<path d="M0 0 C0.12381526 4.3415346 0.21443558 8.68212837 0.2746582 13.02490234 C0.29976737 14.50132146 0.33386255 15.97761668 0.37719727 17.45361328 C0.438018 19.5787614 0.46624209 21.70226394 0.48828125 23.828125 C0.51446533 25.1059082 0.54064941 26.38369141 0.56762695 27.70019531 C0 31 0 31 -2.21362305 33.2565918 C-3.13312744 33.8319165 -4.05263184 34.40724121 -5 35 C-5.81484863 35.5163501 -6.62969727 36.0327002 -7.46923828 36.56469727 C-8.32759277 37.06026123 -9.18594727 37.5558252 -10.0703125 38.06640625 C-11.52570435 38.91126587 -11.52570435 38.91126587 -13.01049805 39.77319336 C-14.03828369 40.36366455 -15.06606934 40.95413574 -16.125 41.5625 C-18.28012833 42.80437447 -20.4350738 44.04656632 -22.58984375 45.2890625 C-23.66476074 45.90813477 -24.73967773 46.52720703 -25.84716797 47.16503906 C-28.79354532 48.87984254 -31.71482447 50.62945278 -34.62890625 52.3984375 C-35.48661621 52.9133374 -36.34432617 53.4282373 -37.22802734 53.95874023 C-38.83279903 54.92361041 -40.43116563 55.89923843 -42.02197266 56.88696289 C-47.22307702 59.98441358 -47.22307702 59.98441358 -50.53125 60.05078125 C-54.11064863 58.52727139 -57.45248733 56.70581654 -60.8125 54.75 C-61.52083984 54.34249512 -62.22917969 53.93499023 -62.95898438 53.51513672 C-64.35190597 52.71071489 -65.74277382 51.9027241 -67.13134766 51.09082031 C-68.68885124 50.18163217 -70.25545446 49.28805487 -71.82421875 48.3984375 C-74 47.125 -74 47.125 -77 45 C-77 44.01 -77 43.02 -77 42 C-75.14599609 40.58056641 -75.14599609 40.58056641 -72.5234375 39.1015625 C-71.5540625 38.54662109 -70.5846875 37.99167969 -69.5859375 37.41992188 C-67.99652344 36.53143555 -67.99652344 36.53143555 -66.375 35.625 C-64.15323602 34.35748891 -61.93189033 33.08924437 -59.7109375 31.8203125 C-58.58268555 31.1799707 -57.45443359 30.53962891 -56.29199219 29.87988281 C-51.49550535 27.14086259 -46.74727433 24.32316324 -42 21.5 C-33.97274504 16.74613023 -25.9299428 12.01930393 -17.875 7.3125 C-16.33585937 6.41144531 -16.33585937 6.41144531 -14.765625 5.4921875 C-13.33089844 4.65494141 -13.33089844 4.65494141 -11.8671875 3.80078125 C-11.02269043 3.30747314 -10.17819336 2.81416504 -9.30810547 2.3059082 C-8.16559326 1.65948364 -8.16559326 1.65948364 -7 1 C-6.30148926 0.59160889 -5.60297852 0.18321777 -4.88330078 -0.23754883 C-3 -1 -3 -1 0 0 Z " fill="#EAEAEA" transform="translate(348,100)"/>
<path d="M0 0 C2.109375 0.41015625 2.109375 0.41015625 4 1 C4.02335028 15.16001895 4.0409232 29.32003492 4.05181217 43.48006916 C4.05703752 50.05467203 4.06412889 56.62926199 4.07543945 63.20385742 C4.08628064 69.54508275 4.09227947 75.88629565 4.09487724 82.22752953 C4.09672926 84.65050642 4.10034562 87.07348262 4.10573006 89.49645424 C4.11295678 92.88217278 4.11399024 96.26783948 4.11352539 99.65356445 C4.11712067 100.66200912 4.12071594 101.6704538 4.12442017 102.7094574 C4.1230455 103.63072418 4.12167084 104.55199097 4.12025452 105.50117493 C4.12117631 106.30221303 4.1220981 107.10325113 4.12304783 107.92856312 C4 110 4 110 3 113 C1.02 112.67 -0.96 112.34 -3 112 C-1.02 111.505 -1.02 111.505 1 111 C1.33 75.03 1.66 39.06 2 2 C0.35 2.33 -1.3 2.66 -3 3 C-1.75 1.4375 -1.75 1.4375 0 0 Z " fill="#323434" transform="translate(344,148)"/>
<path d="M0 0 C0 10.23 0 20.46 0 31 C-0.99 31.495 -0.99 31.495 -2 32 C-2.33 22.1 -2.66 12.2 -3 2 C-7.455 3.485 -7.455 3.485 -12 5 C-8.37761107 1.37761107 -5.1847968 -1.7282656 0 0 Z " fill="#474748" transform="translate(348,100)"/>
<path d="M0 0 C0.99 0.66 1.98 1.32 3 2 C2.34 2 1.68 2 1 2 C1.16081055 3.30356445 1.32162109 4.60712891 1.48730469 5.95019531 C1.99935906 10.57720624 2.17666354 15.14454976 2.203125 19.796875 C2.20882507 20.59353577 2.21452515 21.39019653 2.22039795 22.21099854 C2.22976265 23.87811995 2.23634751 25.54525916 2.24023438 27.21240234 C2.25003005 29.75780848 2.28116818 32.30243571 2.3125 34.84765625 C2.31902345 36.47655776 2.3242765 38.10546497 2.328125 39.734375 C2.3404718 40.48966492 2.3528186 41.24495483 2.36553955 42.02313232 C2.3464829 46.54007027 1.71347245 49.36233496 -1 53 C-1.66 52.67 -2.32 52.34 -3 52 C-2.67854004 51.06212646 -2.35708008 50.12425293 -2.02587891 49.15795898 C-0.64429955 44.29715936 -0.64714338 39.49679486 -0.5859375 34.47265625 C-0.56657135 33.48373886 -0.5472052 32.49482147 -0.5272522 31.47593689 C-0.46779378 28.33821049 -0.42120644 25.20044672 -0.375 22.0625 C-0.33678916 19.92641689 -0.29773564 17.79034867 -0.2578125 15.65429688 C-0.16212028 10.43633081 -0.07697545 5.21827395 0 0 Z " fill="#5F5F5F" transform="translate(192,195)"/>
<path d="M0 0 C0.33 0 0.66 0 1 0 C1.00586624 0.60943451 1.01173248 1.21886902 1.01777649 1.84677124 C1.08156651 8.17322316 1.16594784 14.49915954 1.26245117 20.82519531 C1.2957656 23.18808203 1.32377697 25.55104958 1.34643555 27.9140625 C1.3798617 31.30503893 1.43217147 34.69527016 1.48828125 38.0859375 C1.49467117 39.14743011 1.5010611 40.20892273 1.50764465 41.30258179 C1.53733589 42.77388046 1.53733589 42.77388046 1.56762695 44.27490234 C1.57873001 45.14094086 1.58983307 46.00697937 1.60127258 46.89926147 C1.73285263 47.59250519 1.86443268 48.2857489 2 49 C2.99 49.66 3.98 50.32 5 51 C5 51.66 5 52.32 5 53 C3.35 52.34 1.7 51.68 0 51 C0 34.17 0 17.34 0 0 Z " fill="#E3E4E4" transform="translate(319,196)"/>
<path d="M0 0 C0 0.66 0 1.32 0 2 C-0.99 2 -1.98 2 -3 2 C-3 3.32 -3 4.64 -3 6 C-1.68 6 -0.36 6 1 6 C0.67 6.99 0.34 7.98 0 9 C-4.75 7.125 -4.75 7.125 -7 6 C-7 5.01 -7 4.02 -7 3 C-2.77777778 0 -2.77777778 0 0 0 Z " fill="#777778" transform="translate(278,139)"/>
<path d="M0 0 C0.33 0 0.66 0 1 0 C1.03738281 1.13179687 1.07476562 2.26359375 1.11328125 3.4296875 C1.17893082 4.91149205 1.24537851 6.39326139 1.3125 7.875 C1.33505859 8.62136719 1.35761719 9.36773437 1.38085938 10.13671875 C1.47811945 12.099604 1.73042294 14.05328322 2 16 C2.99 16.66 3.98 17.32 5 18 C5 18.66 5 19.32 5 20 C2.525 19.01 2.525 19.01 0 18 C0 12.06 0 6.12 0 0 Z " fill="#B8B8B9" transform="translate(319,229)"/>
<path d="M0 0 C5.23518706 1.43967644 9.63026009 3.81696611 14 7 C14 7.33 14 7.66 14 8 C11.6875 8.1875 11.6875 8.1875 9 8 C7.375 6.5625 7.375 6.5625 6 5 C5.01 4.67 4.02 4.34 3 4 C3 3.34 3 2.68 3 2 C2.01 2.33 1.02 2.66 0 3 C0 2.01 0 1.02 0 0 Z " fill="#737373" transform="translate(189,161)"/>
<path d="M0 0 C2.75383923 1.37691962 3.51483101 3.36720042 5 6 C1.62496331 4.8141763 -0.64722731 3.72426311 -3 1 C-2.01 0.67 -1.02 0.34 0 0 Z " fill="#777778" transform="translate(281,147)"/>
<path d="M0 0 C1.48117801 0.28127421 2.95993249 0.57533732 4.4375 0.875 C5.67306641 1.11863281 5.67306641 1.11863281 6.93359375 1.3671875 C7.61550781 1.57601562 8.29742187 1.78484375 9 2 C9.33 2.66 9.66 3.32 10 4 C7.98177083 3.70703125 5.96354167 3.4140625 3.9453125 3.12109375 C1.91859333 2.8315703 1.91859333 2.8315703 0 4 C0 2.68 0 1.36 0 0 Z " fill="#9FA0A1" transform="translate(165,100)"/>
<path d="M0 0 C1.65 1.65 3.3 3.3 5 5 C1.42424104 5 -0.05295935 3.91159393 -3 2 C-2.01 1.34 -1.02 0.68 0 0 Z " fill="#616162" transform="translate(175,134)"/>
</svg>
