<?xml version="1.0" encoding="UTF-8"?>
<svg version="1.1" xmlns="http://www.w3.org/2000/svg" width="540" height="360">
<path d="M0 0 C178.2 0 356.4 0 540 0 C540 118.8 540 237.6 540 360 C361.8 360 183.6 360 0 360 C0 241.2 0 122.4 0 0 Z " fill="#07080A" transform="translate(0,0)"/>
<path d="M0 0 C3.52635031 1.33993423 6.78430848 2.894243 10.078125 4.73046875 C11.06135742 5.27848145 12.04458984 5.82649414 13.05761719 6.39111328 C14.11110352 6.9839209 15.16458984 7.57672852 16.25 8.1875 C17.3524707 8.80608887 18.45494141 9.42467773 19.59082031 10.06201172 C28.45628621 15.06597962 37.19539534 20.26456301 45.90576172 25.53417969 C52.3466119 29.42592597 58.82700646 33.22905266 65.375 36.9375 C73.37070365 41.4668892 81.29003166 46.11399905 89.1875 50.8125 C93.20069645 53.19401413 97.21500407 55.57364495 101.23034668 57.95153809 C102.42471428 58.65916196 103.61879959 59.3672625 104.81262207 60.07580566 C108.40313695 62.20643823 111.99903859 64.32739909 115.60317993 66.43490601 C117.27267717 67.4141421 118.93658753 68.40288358 120.6003418 69.3918457 C121.61523682 69.98312256 122.63013184 70.57439941 123.67578125 71.18359375 C124.56177002 71.70493896 125.44775879 72.22628418 126.3605957 72.76342773 C129.31279749 74.14654697 131.75193392 74.74754681 135 75 C137.67778545 73.76386653 139.91998774 72.5229484 142.375 70.9375 C143.86504348 70.01816525 145.35598549 69.10028579 146.84765625 68.18359375 C147.65992676 67.67812012 148.47219727 67.17264648 149.30908203 66.65185547 C154.42402957 63.51197749 159.6243865 60.51682665 164.8125 57.5 C165.85647949 56.88890381 166.90045898 56.27780762 167.97607422 55.64819336 C168.95979004 55.07335205 169.94350586 54.49851074 170.95703125 53.90625 C171.83335205 53.39384766 172.70967285 52.88144531 173.61254883 52.35351562 C175.70450307 51.16752582 177.84912215 50.07543892 180 49 C180 85.63 180 122.26 180 160 C160.37694013 153.45898004 160.37694013 153.45898004 154 146 C150.80326339 137.89773643 152.1191585 128.73898412 152.75 120.25 C152.85045075 117.89621201 152.94168363 115.54201153 153.0234375 113.1875 C153.24265131 107.44925611 153.5759458 101.72655865 154 96 C153.41621582 96.38969971 152.83243164 96.77939941 152.23095703 97.1809082 C149.55427032 98.93409836 146.84203881 100.62258975 144.125 102.3125 C143.2071875 102.92673828 142.289375 103.54097656 141.34375 104.17382812 C134.48836114 108.34982204 134.48836114 108.34982204 130.28308105 107.36141968 C127.69233189 106.07900309 125.37485113 104.64448652 123 103 C121.94361328 102.40654785 120.88722656 101.8130957 119.79882812 101.20166016 C118.88552734 100.65300293 117.97222656 100.1043457 117.03125 99.5390625 C115.97856934 98.91016113 114.92588867 98.28125977 113.84130859 97.63330078 C112.73867676 96.97056152 111.63604492 96.30782227 110.5 95.625 C108.1082266 94.19546973 105.71450794 92.76921941 103.3203125 91.34375 C102.71410065 90.98258087 102.10788879 90.62141174 101.48330688 90.2492981 C95.14819046 86.48142867 88.76560244 82.79797119 82.375 79.125 C74.6890629 74.70550088 67.01608504 70.26785402 59.38134766 65.76049805 C54.51223543 62.8867028 49.63485243 60.02770185 44.74462891 57.18994141 C42.74060859 56.01719904 40.74544696 54.82919188 38.75927734 53.62646484 C33.63323684 50.5498677 28.53121157 47.72486658 23.06227112 45.31915283 C5.55738597 37.57795021 5.55738597 37.57795021 0 31 C-3.35254772 20.99012129 -1.82383966 10.20866434 0 0 Z " fill="#FCFCFC" transform="translate(180,100)"/>
<path d="M0 0 C8.15374913 4.44749953 16.25338449 8.95060258 24.3125 13.5625 C24.92049438 13.91004333 25.52848877 14.25758667 26.15490723 14.61566162 C36.01685121 20.25541867 45.81740922 25.99276552 55.5859375 31.79296875 C61.33225821 35.20320764 67.10157503 38.57340199 72.875 41.9375 C73.86145508 42.51250244 74.84791016 43.08750488 75.86425781 43.67993164 C81.09797931 46.7295318 86.33375452 49.77558606 91.5703125 52.8203125 C92.64684082 53.44687744 93.72336914 54.07344238 94.83251953 54.71899414 C96.88232711 55.91200301 98.93274318 57.10396726 100.98388672 58.29467773 C106.38425172 61.43859815 111.72056612 64.65677359 117 68 C112.76233702 72.50031297 107.9313158 75.28570656 102.625 78.375 C101.69171875 78.94605469 100.7584375 79.51710938 99.796875 80.10546875 C92.96395478 84.08327358 92.96395478 84.08327358 89.015625 83.7421875 C88.02046875 83.16726562 87.0253125 82.59234375 86 82 C85.2354248 81.57960449 84.47084961 81.15920898 83.68310547 80.72607422 C80.79852312 79.11767869 77.96213226 77.4406293 75.125 75.75 C72.9766564 74.48291369 70.82821604 73.21599143 68.6796875 71.94921875 C67.02791504 70.97154541 67.02791504 70.97154541 65.34277344 69.97412109 C59.99183853 66.81405247 54.62033491 63.68944417 49.25 60.5625 C47.35927031 59.4598149 45.46864212 58.35695574 43.578125 57.25390625 C42.67900391 56.72941895 41.77988281 56.20493164 40.85351562 55.66455078 C35.90234375 52.77636719 30.95117188 49.88818359 26 47 C26.07994202 47.91176498 26.07994202 47.91176498 26.16149902 48.84194946 C29.8995499 93.44634035 29.8995499 93.44634035 23.67675781 101.78955078 C18.01630438 107.62524291 9.82901519 110.46707348 2 112 C1.34 112 0.68 112 0 112 C0 75.04 0 38.08 0 0 Z " fill="#FCFCFC" transform="translate(180,148)"/>
<path d="M0 0 C1.47965842 10.19257011 2.86249321 20.95842759 0 31 C-5.04151741 37.63344604 -13.13350159 40.4251132 -20.62890625 43.50097656 C-27.10270406 46.37967866 -32.92651154 50.43434515 -38.86572266 54.27001953 C-45.11852657 58.08466784 -45.11852657 58.08466784 -48.96875 57.71484375 C-49.9690625 57.14894531 -50.969375 56.58304688 -52 56 C-52.76940918 55.58314941 -53.53881836 55.16629883 -54.33154297 54.73681641 C-57.05011854 53.23592037 -59.71208805 51.6598673 -62.375 50.0625 C-63.30183594 49.52431641 -64.22867187 48.98613281 -65.18359375 48.43164062 C-66.05886719 47.90892578 -66.93414062 47.38621094 -67.8359375 46.84765625 C-68.63563965 46.37336182 -69.4353418 45.89906738 -70.25927734 45.41040039 C-71.12093506 44.7122522 -71.12093506 44.7122522 -72 44 C-72 43.01 -72 42.02 -72 41 C-69.93408203 39.42871094 -69.93408203 39.42871094 -67.0078125 37.734375 C-65.92290527 37.09902832 -64.83799805 36.46368164 -63.72021484 35.80908203 C-62.52194366 35.12248786 -61.32353512 34.43613335 -60.125 33.75 C-58.89869451 33.03725269 -57.67295238 32.3235353 -56.44775391 31.60888672 C-53.26581302 29.7566751 -50.07623796 27.91807183 -46.8840332 26.08361816 C-43.92471889 24.38154267 -40.97049311 22.67072016 -38.015625 20.9609375 C-33.66803292 18.44745618 -29.31589636 15.94209741 -24.9609375 13.44140625 C-21.17981798 11.26614188 -17.41325368 9.06968547 -13.6640625 6.83984375 C-12.86693848 6.36595215 -12.06981445 5.89206055 -11.24853516 5.40380859 C-9.79535112 4.53694724 -8.34434095 3.66642655 -6.89599609 2.79150391 C-2.21778735 0 -2.21778735 0 0 0 Z " fill="#FAFBFB" transform="translate(360,101)"/>
<path d="M0 0 C0 2.31 0 4.62 0 7 C-0.928125 6.979375 -1.85625 6.95875 -2.8125 6.9375 C-6.02286011 6.84230396 -6.02286011 6.84230396 -9 8 C-9.33 7.01 -9.66 6.02 -10 5 C-8.52227402 4.1641146 -7.04277811 3.33135744 -5.5625 2.5 C-4.32693359 1.80390625 -4.32693359 1.80390625 -3.06640625 1.09375 C-1 0 -1 0 0 0 Z " fill="#141516" transform="translate(204,247)"/>
<path d="M0 0 C3.34373475 0.55728913 6.03312999 1.35173889 9 3 C9 4.65 9 6.3 9 8 C5.7 6.35 2.4 4.7 -1 3 C-0.67 2.01 -0.34 1.02 0 0 Z " fill="#121314" transform="translate(262,193)"/>
<path d="M0 0 C0.66 1.32 1.32 2.64 2 4 C-1.96 5.98 -1.96 5.98 -6 8 C-6.33 7.01 -6.66 6.02 -7 5 C-7.33 4.34 -7.66 3.68 -8 3 C-3.375 0 -3.375 0 0 0 Z " fill="#101113" transform="translate(329,114)"/>
<path d="M0 0 C0.99 0.33 1.98 0.66 3 1 C2.67 1.66 2.34 2.32 2 3 C-1 4 -1 4 -4 4 C-4 4.66 -4 5.32 -4 6 C-5.65 6 -7.3 6 -9 6 C-6.11861791 3.75892504 -3.25320657 1.66831106 0 0 Z " fill="#19191B" transform="translate(343,141)"/>
<path d="M0 0 C2.8125 -0.25 2.8125 -0.25 6 0 C7.875 2 7.875 2 9 4 C7.3125 4.6875 7.3125 4.6875 5 5 C2.25 3.6875 2.25 3.6875 0 2 C0 1.34 0 0.68 0 0 Z " fill="#171819" transform="translate(220,170)"/>
<path d="M0 0 C3 3.625 3 3.625 3 7 C0.08482708 5.92598892 -1.77810176 5.22189824 -4 3 C-2.68 2.67 -1.36 2.34 0 2 C0 1.34 0 0.68 0 0 Z " fill="#171819" transform="translate(256,138)"/>
<path d="M0 0 C2.6875 0.3125 2.6875 0.3125 5 1 C3.35 2.32 1.7 3.64 0 5 C-0.99 4.34 -1.98 3.68 -3 3 C-1.8125 1.4375 -1.8125 1.4375 0 0 Z " fill="#131415" transform="translate(317,121)"/>
<path d="M0 0 C1.2065625 0.0309375 1.2065625 0.0309375 2.4375 0.0625 C2.7675 1.7125 3.0975 3.3625 3.4375 5.0625 C0.52232708 3.98848892 -1.34060176 3.28439824 -3.5625 1.0625 C-2.5625 0.0625 -2.5625 0.0625 0 0 Z " fill="#191A1B" transform="translate(235.5625,176.9375)"/>
<path d="M0 0 C0.66 0.33 1.32 0.66 2 1 C2 1.99 2 2.98 2 4 C1.01 4 0.02 4 -1 4 C-1.33 4.66 -1.66 5.32 -2 6 C-2.33 5.34 -2.66 4.68 -3 4 C-3.66 3.67 -4.32 3.34 -5 3 C-2.625 1.4375 -2.625 1.4375 0 0 Z " fill="#141515" transform="translate(324,201)"/>
<path d="M0 0 C1.65 0 3.3 0 5 0 C4.67 1.65 4.34 3.3 4 5 C1.525 4.01 1.525 4.01 -1 3 C-0.67 2.01 -0.34 1.02 0 0 Z " fill="#131416" transform="translate(281,204)"/>
<path d="M0 0 C0.33 0.66 0.66 1.32 1 2 C-0.32 2.33 -1.64 2.66 -3 3 C-3.33 4.65 -3.66 6.3 -4 8 C-4.99 6.68 -5.98 5.36 -7 4 C-4.69 2.68 -2.38 1.36 0 0 Z " fill="#1C1D1F" transform="translate(326,151)"/>
<path d="M0 0 C2.8992226 0.46761655 3.86675182 0.86675182 6 3 C4.35 3.33 2.7 3.66 1 4 C0.34 3.01 -0.32 2.02 -1 1 C-0.67 0.67 -0.34 0.34 0 0 Z " fill="#0F1010" transform="translate(304,204)"/>
<path d="M0 0 C0.99 0 1.98 0 3 0 C3.33 0.66 3.66 1.32 4 2 C4.99 2.66 5.98 3.32 7 4 C6.01 4.33 5.02 4.66 4 5 C1.3125 3.5625 1.3125 3.5625 -1 2 C-0.67 1.34 -0.34 0.68 0 0 Z " fill="#1A1A1B" transform="translate(249,186)"/>
<path d="M0 0 C4.75 0.75 4.75 0.75 7 3 C5.1875 3.625 5.1875 3.625 3 4 C2.01 3.34 1.02 2.68 0 2 C0 1.34 0 0.68 0 0 Z " fill="#161718" transform="translate(189,137)"/>
</svg>
